<?xml version="1.0" encoding="UTF-8"?>
<svg width="48px" height="48px" viewBox="0 0 48 48" version="1.1" xmlns="http://www.w3.org/2000/svg" xmlns:xlink="http://www.w3.org/1999/xlink">
    <!-- Generator: Sketch 47.1 (45422) - http://www.bohemiancoding.com/sketch -->
    <title>Briefcase Copy</title>
    <desc>Created with Sketch.</desc>
    <defs></defs>
    <g id="Page-1" stroke="none" stroke-width="1" fill="none" fill-rule="evenodd">
        <g id="Favicon">
            <g id="Briefcase-Copy" transform="translate(23.912088, 23.000000) rotate(-90.000000) translate(-23.912088, -23.000000) translate(4.000000, -1.000000)">
                <path d="M31.7367824,16.4603868 L31.7367824,12.4541802 C31.7367824,12.1537319 31.9801846,11.9103297 32.280633,11.9103297 C32.5811077,11.9103297 32.8245099,12.1537319 32.8245099,12.4541802 L32.8245099,16.4603868 C32.8245099,16.7608352 32.5811077,17.0042374 32.280633,17.0042374 C31.9801846,17.0042374 31.7367824,16.7608352 31.7367824,16.4603868" id="Fill-31" fill="#6C6E70"></path>
                <path d="M31.7367824,35.5911824 L31.7367824,31.5850022 C31.7367824,31.2845538 31.9801846,31.0411516 32.280633,31.0411516 C32.5811077,31.0411516 32.8245099,31.2845538 32.8245099,31.5850022 L32.8245099,35.5911824 C32.8245099,35.8916571 32.5811077,36.135033 32.280633,36.135033 C31.9801846,36.135033 31.7367824,35.8916571 31.7367824,35.5911824" id="Fill-32" fill="#6C6E70"></path>
                <path d="M32.8245626,15.6707077 L35.4892484,15.6707077 C36.6099429,15.6707077 37.5266901,16.5877187 37.5266901,17.7084132 L37.5266901,30.3370813 C37.5266901,31.4577758 36.6099429,32.3745231 35.4892484,32.3745231 L32.8245626,32.3745231 L32.8245626,34.6194198 L37.5790418,34.6194198 C38.6997626,34.6194198 39.6165099,33.7026462 39.6165099,32.5819516 L39.6165099,15.4635429 C39.6165099,14.342822 38.6997626,13.4258374 37.5790418,13.4258374 L32.8245626,13.4258374 L32.8245626,15.6707077 Z" id="Fill-33" fill="#231F20"></path>
                <path d="M0.166338462,43.1337495 L0.166338462,4.91158681 C0.166338462,2.27493626 2.30378901,0.137485714 4.94043956,0.137485714 L27.1323956,0.137485714 C29.7690198,0.137485714 31.9064703,2.27493626 31.9064703,4.91158681 L31.9064703,43.1337495 C31.9064703,45.7704 29.7690198,47.9078505 27.1323956,47.9078505 L4.94043956,47.9078505 C2.30378901,47.9078505 0.166338462,45.7704 0.166338462,43.1337495" id="Fill-34" fill="#BBBDBF"></path>
                <path d="M16.5803604,33.5880791 C11.0006769,33.5880791 6.47717802,29.0648176 6.47717802,23.4848967 C6.47717802,17.9052132 11.0006769,13.3819516 16.5803604,13.3819516 C22.160044,13.3819516 26.6835429,17.9052132 26.6835429,23.4848967 C26.6835429,29.0648176 22.160044,33.5880791 16.5803604,33.5880791" id="Fill-35" fill="#EC1D24"></path>
                <path d="M18.4906022,29.7309099 L18.4906022,25.4376791 L22.7838593,25.4376791 C23.2026725,25.4376791 23.5420747,25.0982505 23.5420747,24.6794637 L23.5420747,22.3755429 C23.5420747,21.9567297 23.2026725,21.6170637 22.7838593,21.6170637 L18.4906022,21.6170637 L18.4906022,17.3238066 C18.4906022,16.9050198 18.1512,16.5655912 17.7323868,16.5655912 L15.4284659,16.5655912 C15.0096791,16.5655912 14.6700132,16.9050198 14.6700132,17.3238066 L14.6700132,21.6170637 L10.376756,21.6170637 C9.95794286,21.6170637 9.61854066,21.9567297 9.61854066,22.3755429 L9.61854066,24.6794637 C9.61854066,25.0982505 9.95794286,25.4376791 10.376756,25.4376791 L14.6700132,25.4376791 L14.6700132,29.7309099 C14.6700132,30.1497231 15.0096791,30.4891516 15.4284659,30.4891516 L17.7323868,30.4891516 C18.1512,30.4891516 18.4906022,30.1497231 18.4906022,29.7309099" id="Fill-36" fill="#FEFEFE"></path>
            </g>
        </g>
    </g>
</svg>