<?xml version="1.0" encoding="UTF-8"?>
<svg width="182px" height="150px" viewBox="0 0 182 150" version="1.1" xmlns="http://www.w3.org/2000/svg" xmlns:xlink="http://www.w3.org/1999/xlink">
    <!-- Generator: Sketch 47.1 (45422) - http://www.bohemiancoding.com/sketch -->
    <title>Health Assistant Favicon</title>
    <defs></defs>
    <g id="Page-1" stroke="none" stroke-width="1" fill="none" fill-rule="evenodd">
        <g id="healthcare" transform="translate(70.297726, 158.377715) rotate(270.000000) translate(-70.297726, -158.377715) translate(-210.702274, -237.622285)">
            <g id="Briefcase-Copy" transform="translate(289.000000, 326.000000)">
                <path d="M120.3353,62.4123 L120.3353,47.2221 C120.3353,46.0829 121.2582,45.16 122.3974,45.16 C123.5367,45.16 124.4596,46.0829 124.4596,47.2221 L124.4596,62.4123 C124.4596,63.5515 123.5367,64.4744 122.3974,64.4744 C121.2582,64.4744 120.3353,63.5515 120.3353,62.4123" id="Fill-31" fill="#6C6E70"></path>
                <path d="M120.3353,134.9499 L120.3353,119.7598 C120.3353,118.6206 121.2582,117.6977 122.3974,117.6977 C123.5367,117.6977 124.4596,118.6206 124.4596,119.7598 L124.4596,134.9499 C124.4596,136.0892 123.5367,137.012 122.3974,137.012 C121.2582,137.012 120.3353,136.0892 120.3353,134.9499" id="Fill-32" fill="#6C6E70"></path>
                <path d="M124.4598,59.4181 L134.5634,59.4181 C138.8127,59.4181 142.2887,62.8951 142.2887,67.1444 L142.2887,115.0281 C142.2887,119.2774 138.8127,122.7534 134.5634,122.7534 L124.4598,122.7534 L124.4598,131.2653 L142.4872,131.2653 C146.7366,131.2653 150.2126,127.7892 150.2126,123.5399 L150.2126,58.6326 C150.2126,54.3832 146.7366,50.9063 142.4872,50.9063 L124.4598,50.9063 L124.4598,59.4181 Z" id="Fill-33" fill="#231F20"></path>
                <path d="M0.6307,163.5488 L0.6307,18.6231 C0.6307,8.6258 8.7352,0.5213 18.7325,0.5213 L102.877,0.5213 C112.8742,0.5213 120.9787,8.6258 120.9787,18.6231 L120.9787,163.5488 C120.9787,173.5461 112.8742,181.6506 102.877,181.6506 L18.7325,181.6506 C8.7352,181.6506 0.6307,173.5461 0.6307,163.5488" id="Fill-34" fill="#BBBDBF"></path>
                <path d="M62.8672,127.3548 C41.7109,127.3548 24.5593,110.2041 24.5593,89.0469 C24.5593,67.8906 41.7109,50.7399 62.8672,50.7399 C84.0235,50.7399 101.1751,67.8906 101.1751,89.0469 C101.1751,110.2041 84.0235,127.3548 62.8672,127.3548" id="Fill-35" fill="#EC1D24"></path>
                <path d="M70.1102,112.7297 L70.1102,96.4512 L86.3888,96.4512 C87.9768,96.4512 89.2637,95.1642 89.2637,93.5763 L89.2637,84.8406 C89.2637,83.2526 87.9768,81.9647 86.3888,81.9647 L70.1102,81.9647 L70.1102,65.6861 C70.1102,64.0982 68.8233,62.8112 67.2353,62.8112 L58.4996,62.8112 C56.9117,62.8112 55.6238,64.0982 55.6238,65.6861 L55.6238,81.9647 L39.3452,81.9647 C37.7572,81.9647 36.4703,83.2526 36.4703,84.8406 L36.4703,93.5763 C36.4703,95.1642 37.7572,96.4512 39.3452,96.4512 L55.6238,96.4512 L55.6238,112.7297 C55.6238,114.3177 56.9117,115.6047 58.4996,115.6047 L67.2353,115.6047 C68.8233,115.6047 70.1102,114.3177 70.1102,112.7297" id="Fill-36" fill="#FEFEFE"></path>
            </g>
        </g>
    </g>
</svg>
